<svg width="89" height="77" viewBox="0 0 89 77" fill="none" xmlns="http://www.w3.org/2000/svg">
<g clip-path="url(#clip0_2510_1426)">
<path d="M-0.00052805 68.7442V0H88.4995V76.2153H87.9717V68.7442H79.4949V76.2153H76.3174V68.7442H68.6349C67.6433 68.1174 67.7393 66.4678 68.6349 65.7557H76.3174V58.2846H79.4949V65.7557H87.9717V0.496402H79.4949V53.3006H76.3174V3.48484H3.17694V65.7507H63.0584V68.7442H-0.00585938H-0.00052805Z" fill="white"/>
<path d="M49.2832 11.4581L52.466 11.4531L52.7699 16.4472L57.2375 16.4422L57.2322 11.4531L60.415 11.4581V24.9061L57.2322 24.9111L56.9283 19.4206L52.4607 19.4256L52.466 24.9111L49.2832 24.9061V11.4581Z" fill="white"/>
<path d="M33.1238 11.457L33.9181 13.9441H28.0857V16.9375L32.612 16.9124L32.8572 19.4245H28.0857V22.418L33.9181 22.413V24.905H24.9082V11.457H33.1238Z" fill="white"/>
<path d="M46.6335 12.4652L45.5672 14.9472C38.1887 10.2238 37.2184 23.3559 43.1521 22.4283C44.6769 22.1876 46.2603 19.9513 46.5642 23.8473C32.0683 29.9746 32.7774 6.58355 46.6335 12.4652Z" fill="white"/>
<path d="M22.7857 11.457V13.9491C21.3355 14.0393 19.5495 13.4627 18.5473 14.6962V24.91H15.3698V13.9491H11.6592V11.457H22.7857Z" fill="white"/>
<path d="M14.8425 54.7952C16.6072 55.2013 15.7168 52.8998 16.0207 51.6764C16.2287 50.844 17.9293 45.3234 18.2865 45.3284C19.2462 45.3385 19.3262 45.875 19.646 46.5419L22.2531 54.7902C23.4259 51.6764 22.9568 47.299 25.4359 44.832L22.5249 57.2922L21.2081 56.9412L19.0756 47.3241C18.0999 47.4795 18.1852 48.347 17.9507 48.9988C17.0284 51.541 16.5645 54.6447 15.8928 57.2872H14.32L11.665 44.832C14.0801 45.7697 13.9788 53.9327 14.8425 54.7952Z" fill="white"/>
<path d="M26.8964 28.4805C34.0297 27.3674 35 40.1886 28.869 41.3318C20.7707 42.8461 19.8324 29.5836 26.8964 28.4805ZM27.3709 29.5235C21.8423 29.9898 22.0555 40.7001 27.824 40.3992C33.5232 40.1034 32.8835 29.0622 27.3709 29.5235Z" fill="white"/>
<path d="M58.293 28.8911C60.5641 28.6304 58.6342 32.6166 59.5832 33.9053L65.7462 34.156C67.2336 33.1832 64.9091 28.6555 67.3029 28.8961V40.6042C65.197 42.7503 65.8315 36.292 66.242 35.3794H59.3539C59.1566 35.56 59.4872 39.6615 59.3539 40.6142C59.2206 41.5669 59.5352 41.4165 58.293 41.3513V28.8961V28.8911Z" fill="white"/>
<path d="M34.9791 45.3334C35.8374 45.9752 34.9204 46.2409 34.19 46.3262C33.2517 46.4365 29.3225 46.1557 29.1413 46.3262V50.3174C29.5464 50.6985 33.9661 49.4801 34.4406 51.3052H29.1413V56.2943C29.3385 56.4798 33.7049 56.169 34.7178 56.2943C35.4909 56.3896 36.3599 56.6754 35.5015 57.2871L28.0537 57.0715C27.0247 56.3946 28.5175 47.5296 27.5898 45.6442L28.7627 44.9473L34.9791 45.3384V45.3334Z" fill="white"/>
<path d="M45.0448 45.8342L44.2611 46.827C41.878 45.7188 40.2839 45.1272 38.7538 47.6744C38.0128 50.382 45.4233 50.4622 45.6366 54.0474C45.8818 58.1891 38.4286 59.1869 37.1064 55.2959C39.5802 55.9828 41.5688 57.477 44.0478 55.5917C46.4149 51.5503 38.1087 51.806 37.6236 48.5418C37.0105 44.4252 42.1392 44.1795 45.0555 45.8392L45.0448 45.8342Z" fill="white"/>
<path d="M35.5068 28.8913C36.941 27.1063 36.5198 33.1484 36.5731 33.6197C36.6957 34.7629 37.2129 39.2255 37.7513 39.732C39.3081 41.1911 43.4558 39.8523 43.4558 38.1074V28.8913H44.5168V38.6038C44.5168 40.0779 41.1954 41.5371 39.4733 41.3866C38.1512 41.2713 35.5068 39.0701 35.5068 38.1074V28.8913Z" fill="white"/>
<path d="M20.136 30.8813C19.7948 31.1771 13.04 26.8148 14.0263 32.887C16.2015 34.5517 20.7491 34.8024 20.7064 38.1218C20.6585 41.9676 13.1893 42.5743 11.6592 38.8588C14.0583 39.3101 16.2228 41.6367 18.5739 39.626C22.2525 36.4771 14.0423 35.008 12.992 33.3733C10.481 29.4573 18.5686 26.0527 20.136 30.8813Z" fill="white"/>
<path d="M56.1759 28.8906L56.1706 29.8834L51.9322 29.8884V41.3458H50.8765V29.8884L46.6381 29.8834L46.6328 28.8906H56.1759Z" fill="white"/>
<path d="M55.6432 45.334V46.3268H51.4048V57.2878H50.3439V46.3268H46.1055V45.334H55.6432Z" fill="white"/>
</g>
<defs>
<clipPath id="clip0_2510_1426">
<rect width="88.5" height="76.2153" fill="white"/>
</clipPath>
</defs>
</svg>
