<svg width="16" height="16" viewBox="0 0 16 16" fill="none" xmlns="http://www.w3.org/2000/svg">
<path d="M9.33333 6.35733V4.66667C9.33333 3.95942 9.61428 3.28115 10.1144 2.78105C10.6145 2.28095 11.2928 2 12 2H13C13.0884 2 13.1732 2.03512 13.2357 2.09763C13.2982 2.16014 13.3333 2.24493 13.3333 2.33333V3.33333C13.3333 4.04058 13.0524 4.71885 12.5523 5.21895C12.0522 5.71905 11.3739 6 10.6667 6C9.95942 6 9.28115 6.28095 8.78105 6.78105C8.28095 7.28115 8 7.95942 8 8.66667C8 10 8.66667 10.6667 8.66667 12C8.66667 12.7212 8.43274 13.423 8 14" stroke="#27AEA7" stroke-width="1.33333" stroke-linecap="round" stroke-linejoin="round"/>
<path d="M2.66699 5.99968C3.16222 5.62825 3.7511 5.40207 4.36764 5.34648C4.98418 5.29089 5.60402 5.40808 6.1577 5.68492C6.71139 5.96176 7.17705 6.38732 7.50249 6.91391C7.82794 7.44049 8.00033 8.0473 8.00033 8.66634C7.50509 9.03777 6.91622 9.26395 6.29968 9.31954C5.68314 9.37513 5.0633 9.25794 4.50961 8.9811C3.95593 8.70426 3.49027 8.2787 3.16482 7.75211C2.83937 7.22553 2.66699 6.61872 2.66699 5.99968Z" stroke="#27AEA7" stroke-width="1.33333" stroke-linecap="round" stroke-linejoin="round"/>
<path d="M3.33301 14H12.6663" stroke="#27AEA7" stroke-width="1.33333" stroke-linecap="round" stroke-linejoin="round"/>
</svg>
